<svg width="41" height="40" viewBox="0 0 41 40" fill="none" xmlns="http://www.w3.org/2000/svg">
<circle cx="20.5" cy="20" r="20" fill="white" fill-opacity="0.16"/>
<g filter="url(#filter0_dd_733_11194)">
<path fill-rule="evenodd" clip-rule="evenodd" d="M12.25 14.5C11.8358 14.5 11.5 14.8358 11.5 15.25C11.5 15.6642 11.8358 16 12.25 16H22.75C23.1642 16 23.5 15.6642 23.5 15.25C23.5 14.8358 23.1642 14.5 22.75 14.5H12.25ZM12.25 18.5C11.8358 18.5 11.5 18.8358 11.5 19.25C11.5 19.6642 11.8358 20 12.25 20H22.75C23.1642 20 23.5 19.6642 23.5 19.25C23.5 18.8358 23.1642 18.5 22.75 18.5H12.25ZM11.5 23.25C11.5 22.8358 11.8358 22.5 12.25 22.5H18.75C19.1642 22.5 19.5 22.8358 19.5 23.25C19.5 23.6642 19.1642 24 18.75 24H12.25C11.8358 24 11.5 23.6642 11.5 23.25ZM29.2809 20.83C29.5738 21.1229 29.5738 21.5978 29.2809 21.8907L25.3919 25.7798C25.099 26.0727 24.6241 26.0727 24.3312 25.7798L24.324 25.7724L22.5615 24.0099C22.2686 23.7171 22.2686 23.2422 22.5615 22.9493C22.8543 22.6564 23.3292 22.6564 23.6221 22.9493L24.8616 24.1887L28.2203 20.83C28.5132 20.5371 28.988 20.5371 29.2809 20.83Z" fill="#A785FF"/>
</g>
<defs>
<filter id="filter0_dd_733_11194" x="9.7" y="13.5" width="21.601" height="15.0995" filterUnits="userSpaceOnUse" color-interpolation-filters="sRGB">
<feFlood flood-opacity="0" result="BackgroundImageFix"/>
<feColorMatrix in="SourceAlpha" type="matrix" values="0 0 0 0 0 0 0 0 0 0 0 0 0 0 0 0 0 0 127 0" result="hardAlpha"/>
<feOffset dy="0.8"/>
<feGaussianBlur stdDeviation="0.9"/>
<feColorMatrix type="matrix" values="0 0 0 0 0 0 0 0 0 0 0 0 0 0 0 0 0 0 0.13 0"/>
<feBlend mode="normal" in2="BackgroundImageFix" result="effect1_dropShadow_733_11194"/>
<feColorMatrix in="SourceAlpha" type="matrix" values="0 0 0 0 0 0 0 0 0 0 0 0 0 0 0 0 0 0 127 0" result="hardAlpha"/>
<feOffset dy="0.15"/>
<feGaussianBlur stdDeviation="0.225"/>
<feColorMatrix type="matrix" values="0 0 0 0 0 0 0 0 0 0 0 0 0 0 0 0 0 0 0.11 0"/>
<feBlend mode="normal" in2="effect1_dropShadow_733_11194" result="effect2_dropShadow_733_11194"/>
<feBlend mode="normal" in="SourceGraphic" in2="effect2_dropShadow_733_11194" result="shape"/>
</filter>
</defs>
</svg>
