<svg width="41" height="40" viewBox="0 0 41 40" fill="none" xmlns="http://www.w3.org/2000/svg">
<circle cx="20.5" cy="20" r="20" fill="white" fill-opacity="0.16"/>
<g filter="url(#filter0_dd_672_11390)">
<path fill-rule="evenodd" clip-rule="evenodd" d="M27.8125 20C27.8125 24.0386 24.5386 27.3125 20.5 27.3125C16.4614 27.3125 13.1875 24.0386 13.1875 20C13.1875 15.9614 16.4614 12.6875 20.5 12.6875C24.5386 12.6875 27.8125 15.9614 27.8125 20ZM29.5 20C29.5 24.9706 25.4706 29 20.5 29C15.5294 29 11.5 24.9706 11.5 20C11.5 15.0294 15.5294 11 20.5 11C25.4706 11 29.5 15.0294 29.5 20ZM19.5167 22.893L23.2297 20.4851C23.5901 20.2485 23.5901 19.7515 23.2297 19.5208L19.5167 17.107C19.0856 16.8348 18.5 17.1129 18.5 17.5921V22.4079C18.5 22.8871 19.0856 23.1652 19.5167 22.893Z" fill="white"/>
</g>
<defs>
<filter id="filter0_dd_672_11390" x="9.7" y="10" width="21.6" height="21.6" filterUnits="userSpaceOnUse" color-interpolation-filters="sRGB">
<feFlood flood-opacity="0" result="BackgroundImageFix"/>
<feColorMatrix in="SourceAlpha" type="matrix" values="0 0 0 0 0 0 0 0 0 0 0 0 0 0 0 0 0 0 127 0" result="hardAlpha"/>
<feOffset dy="0.8"/>
<feGaussianBlur stdDeviation="0.9"/>
<feColorMatrix type="matrix" values="0 0 0 0 0 0 0 0 0 0 0 0 0 0 0 0 0 0 0.13 0"/>
<feBlend mode="normal" in2="BackgroundImageFix" result="effect1_dropShadow_672_11390"/>
<feColorMatrix in="SourceAlpha" type="matrix" values="0 0 0 0 0 0 0 0 0 0 0 0 0 0 0 0 0 0 127 0" result="hardAlpha"/>
<feOffset dy="0.15"/>
<feGaussianBlur stdDeviation="0.225"/>
<feColorMatrix type="matrix" values="0 0 0 0 0 0 0 0 0 0 0 0 0 0 0 0 0 0 0.11 0"/>
<feBlend mode="normal" in2="effect1_dropShadow_672_11390" result="effect2_dropShadow_672_11390"/>
<feBlend mode="normal" in="SourceGraphic" in2="effect2_dropShadow_672_11390" result="shape"/>
</filter>
</defs>
</svg>
