<svg width="41" height="40" viewBox="0 0 41 40" fill="none" xmlns="http://www.w3.org/2000/svg">
<circle cx="20.5" cy="20" r="20" fill="white" fill-opacity="0.24"/>
<g clip-path="url(#clip0_733_11142)">
<g filter="url(#filter0_dd_733_11142)">
<path d="M24.5 13L23.08 14.42L21.49 12.83V24H19.51V12.83L17.92 14.42L16.5 13L20.5 9L24.5 13ZM28.5 18V29C28.5 30.1 27.6 31 26.5 31H14.5C13.39 31 12.5 30.1 12.5 29V18C12.5 16.89 13.39 16 14.5 16H17.5V18H14.5V29H26.5V18H23.5V16H26.5C27.6 16 28.5 16.89 28.5 18Z" fill="#A785FF"/>
</g>
</g>
<defs>
<filter id="filter0_dd_733_11142" x="10.7" y="8" width="19.6" height="25.6" filterUnits="userSpaceOnUse" color-interpolation-filters="sRGB">
<feFlood flood-opacity="0" result="BackgroundImageFix"/>
<feColorMatrix in="SourceAlpha" type="matrix" values="0 0 0 0 0 0 0 0 0 0 0 0 0 0 0 0 0 0 127 0" result="hardAlpha"/>
<feOffset dy="0.8"/>
<feGaussianBlur stdDeviation="0.9"/>
<feColorMatrix type="matrix" values="0 0 0 0 0 0 0 0 0 0 0 0 0 0 0 0 0 0 0.13 0"/>
<feBlend mode="normal" in2="BackgroundImageFix" result="effect1_dropShadow_733_11142"/>
<feColorMatrix in="SourceAlpha" type="matrix" values="0 0 0 0 0 0 0 0 0 0 0 0 0 0 0 0 0 0 127 0" result="hardAlpha"/>
<feOffset dy="0.15"/>
<feGaussianBlur stdDeviation="0.225"/>
<feColorMatrix type="matrix" values="0 0 0 0 0 0 0 0 0 0 0 0 0 0 0 0 0 0 0.11 0"/>
<feBlend mode="normal" in2="effect1_dropShadow_733_11142" result="effect2_dropShadow_733_11142"/>
<feBlend mode="normal" in="SourceGraphic" in2="effect2_dropShadow_733_11142" result="shape"/>
</filter>
<clipPath id="clip0_733_11142">
<rect width="24" height="24" fill="white" transform="translate(8.5 8)"/>
</clipPath>
</defs>
</svg>
